<?xml version="1.0" encoding="iso-8859-1"?>
<!-- Uploaded to: SVG Repo, www.svgrepo.com, Generator: SVG Repo Mixer Tools -->
<svg fill="#000000" height="800px" width="800px" version="1.1" id="Layer_1" xmlns="http://www.w3.org/2000/svg" xmlns:xlink="http://www.w3.org/1999/xlink" 
	 viewBox="0 0 512.002 512.002" xml:space="preserve">
<g>
	<g>
		<path d="M471.484,272.382c-12.989-4.464-25.884-5.445-36.531-3.445c5.38-9.425,8.661-21.965,8.661-35.736
			c0-29.28-14.835-53.014-33.134-53.014s-33.134,23.735-33.134,53.014c0,17.297,5.178,32.654,13.189,42.329
			c-1.04,24.392-16.794,45.032-38.597,53.252c3.49-8.396,5.528-18.473,5.528-29.313c0-29.28-14.835-53.014-33.134-53.014
			s-33.134,23.735-33.134,53.014c0,12.542,2.728,24.057,7.278,33.134h-27.534c-1.253-11.28-5.666-21.613-12.33-30.107
			c6.883-18.318,11.729-37.109,14.531-56.099c6.042-0.562,12.515-2.254,18.906-5.158c20.089-9.125,31.749-26.699,26.046-39.251
			c-5.293-11.661-23.705-14.884-42.393-7.977c-0.441-9.042-1.344-18.069-2.701-27.053c11.442,1.82,25.546-0.2,39.367-6.478
			c26.658-12.107,42.135-35.43,34.567-52.092c-7.567-16.661-35.313-20.352-61.97-8.245c-6.676,3.032-12.649,6.767-17.736,10.925
			c-0.99-6.68-2.974-13.664-6.024-20.589c-11.8-26.797-34.94-42.544-51.689-35.168c-16.747,7.373-20.759,35.076-8.961,61.873
			c6.851,15.56,17.529,27.381,28.556,33.125c10.965,43.095,9.293,88.175-4.998,130.593c-4.015-0.856-8.174-1.313-12.437-1.313
			h-33.134c-28.982,0-53.191-20.784-58.533-48.227c12.234,2.671,28.176,0.294,43.501-7.52c26.084-13.3,40.49-37.298,32.177-53.599
			c-8.311-16.303-36.194-18.738-62.28-5.438c-2,1.021-3.923,2.11-5.781,3.247c2.873-7.853,4.529-16.986,4.529-26.743
			c0-29.28-14.835-53.014-33.134-53.014s-33.134,23.735-33.134,53.014c0,9.756,1.654,18.89,4.527,26.743
			c-1.858-1.137-3.78-2.228-5.781-3.247c-26.086-13.3-53.969-10.865-62.28,5.438c-8.311,16.302,6.094,40.299,32.177,53.599
			c16.061,8.189,32.795,10.404,45.231,7.099c4.928,44.56,39.414,80.337,83.368,87.209c-5.783,11.291-6.163,22.658,0.133,29.414
			c9.399,10.089,30.104,6.076,46.247-8.965c5.413-5.043,9.618-10.686,12.473-16.338c5.729,3.492,9.576,9.781,9.576,16.969v45.533
			c-40.473-3.425-78.884-17.263-111.99-40.226c-3.536-11.914-13.091-24.644-27.041-34.337
			c-24.045-16.709-51.999-18.071-62.443-3.043c-10.443,15.028,0.583,40.753,24.628,57.461c10.131,7.039,20.954,11.345,30.87,12.857
			c-25.114,14.652-38.094,39.186-28.998,54.959c9.141,15.853,37.113,16.848,62.479,2.223c13.748-7.926,23.896-18.815,28.864-29.65
			c26.434,10.888,54.597,17.562,83.633,19.656v33.848h39.761V372.36h43.816c1.303,11.874,7.543,25.438,18.156,37.306
			c19.52,21.823,46.401,29.624,60.04,17.425c13.639-12.2,8.873-39.782-10.647-61.604c-1.553-1.738-3.158-3.374-4.794-4.93
			c18.294-9.841,33.162-25.244,42.341-43.93c7.142,7.574,17.432,14.201,29.709,18.42c27.689,9.519,54.957,3.206,60.906-14.1
			C516.796,303.646,499.173,281.901,471.484,272.382z"/>
	</g>
</g>
</svg>