<?xml version="1.0" encoding="iso-8859-1"?>
<!-- Uploaded to: SVG Repo, www.svgrepo.com, Generator: SVG Repo Mixer Tools -->
<!DOCTYPE svg PUBLIC "-//W3C//DTD SVG 1.1//EN" "http://www.w3.org/Graphics/SVG/1.1/DTD/svg11.dtd">
<svg fill="#000000" version="1.1" id="Capa_1" xmlns="http://www.w3.org/2000/svg" xmlns:xlink="http://www.w3.org/1999/xlink" 
	 width="800px" height="800px" viewBox="0 0 578.197 578.197"
	 xml:space="preserve">
<g>
	<g>
		<path d="M201.683,332.863c-0.146,1.118-0.077,1.126,0.065,0.009C201.891,331.753,201.83,331.746,201.683,332.863z"/>
		<path d="M125.024,309.375c-0.343-0.225-0.363-0.188-0.049,0.09c0.314,0.277,0.689,0.53,0.841,0.559
			c0.151,0.024,0.175-0.016,0.053-0.094c-0.073-0.049-0.151-0.094-0.224-0.143C125.44,309.648,125.232,309.513,125.024,309.375z"/>
		<path d="M51.167,315.433c34.223,14.786,69.417,15.047,103.975,7.854c1.514-0.314,3.946-0.253,5.459,0.061
			c1.689,0.352,3.395,0.612,5.108,0.779c1.538,0.151,4.031,0.396,5.573,0.47c6.952,0.33,13.872-1.885,20.804-2.615
			c2.709-0.286,5.377-0.946,8.649-1.673c1.51-0.335,2.574,0.657,2.375,2.19c-0.249,1.914-0.494,3.762-0.73,5.578
			c-0.2,1.534-0.139,1.534,0.347,0.069c4.275-12.877,18.099-11.8,29.013-14.904c1.485-0.425,1.787,0.028,0.722,1.146
			c-17.234,18.099-33.509,37.503-59.715,43.305c-1.51,0.335-2.575,1.13-2.362,1.849c0.212,0.714,1.62,1.109,3.158,0.967
			c4.949-0.465,10.126-0.461,14.317-2.493c29.274-14.19,58.222-29.054,87.288-43.676c0.787-0.396,1.595-0.751,2.411-1.098
			c1.346-0.571,2.615-0.62,2.872-0.127c0.225,0.437,0.372,0.714,0.311,0.935c-4.199,15.378-0.278,30.828-0.686,46.223
			c-0.086,3.194-3.37,6.666-5.892,9.339c-2.089,2.216-4.737,3.9-7.781,6.03c-1.265,0.885-1.065,1.995,0.469,2.19
			c7.238,0.927,11.673-3.067,16.01-7.115c5.014-4.68,8.155-10.204,6.091-17.34c-3.676-12.718,0.192-24.003,7.233-34.215
			c1.767-2.562,6.732-4.558,9.915-4.178c6.609,0.791,13.08,2.717,18.58,4.17c1.493,0.396,3.558,1.615,4.565,2.786
			c2.701,3.142,4.867,5.957,7.602,8.018c4.993,3.762,10.199,8.135,16.006,9.714c8.311,2.265,17.229,2.521,25.924,3.093
			c3.864,0.253,7.776-0.204,11.562-0.538c1.538-0.135,3.419,0.869,4.243,2.179c9.604,15.296,20.404,21.971,39.095,22.893
			c1.542,0.077,1.661-0.433,0.253-1.077c-5.585-2.55-11.216-5.011-16.634-7.874c-2.583-1.367-4.888-3.615-6.716-5.94
			c-1.991-2.53-3.391-5.554-4.859-8.458c-3.374-6.671-8.625-9.947-16.022-11.845c-7.964-2.044-15.5-5.773-23.121-9.633
			c-1.379-0.697-1.326-1.709,0.139-2.203c5.431-1.84,10.763-3.228,13.651-7.055c0.931-1.231,2.298-1.615,3.46-0.596
			c9.233,8.1,18.769,16.721,28.772,24.762c2.391,1.922,7.226,2.791,9.938,1.689c2.118-0.861,3.673-5.487,3.786-8.507
			c0.478-12.542,0.245-12.399,12.306-12.448c44.321-0.176,88.442,2.722,132.408,8.213c1.979,0.249,3.994,0.176,6.03-0.195
			c1.521-0.277,1.489-0.931-0.024-1.24c-44.301-9.074-89.454-9.177-134.285-13.497c-1.538-0.146-1.534-0.273,0.013-0.273H574.77
			c1.546,0,2.876-0.167,2.975-0.375c0.098-0.208-1.013-0.775-2.473-1.285c-1.062-0.371-2.126-0.686-3.199-0.719
			c-33.7-1.012-67.401-1.99-101.11-2.782c-10.245-0.24-20.502,0.118-30.755,0.204c-9.115,0.077-12.064-2.24-13.741-10.901
			c-0.661-3.424-1.481-6.847-1.779-10.306c-1.33-15.41-11.983-26.238-18.915-38.891c-1.86-3.395-4.178-6.552-5.924-10
			c-10.4-20.579-27.944-39.16-56.043-35.333c-14.333,1.95-28.576,4.557-42.84,6.985c-0.629,0.106-1.257,0.216-1.885,0.326
			c-1.041,0.18-3.138,0.372-4.676,0.506c-4.01,0.347-7.993,1.069-11.873,2.187c-0.167,0.049-0.331,0.102-0.494,0.159
			c-0.27,0.094-1.718,0.392-3.24,0.657c-8.78,1.534-17.556,3.081-26.324,4.66c-0.677,0.123-1.351,0.245-2.023,0.367
			c-1.118,0.204-3.26,0.163-4.79-0.074c-42.583-6.683-86.153-7.095-128.867-1.044c-20.359,2.885-40.555,7.042-60.298,12.832
			c-15.533,4.554-35.933,8.744-48.091,20.307C-19.678,275.287,29.846,306.221,51.167,315.433z M358.383,326.78
			c6.303,0.103,15.532,3.831,19.967,8.258c1.094,1.094,0.486,2.252-1.061,2.175c-7.919-0.399-16.536-3.876-20.176-7.85
			C356.07,328.224,356.836,326.755,358.383,326.78z M239.603,329.24c8.898-6.846,16.544-15.875,29.409-15.81
			c1.546,0.008,1.705,0.775,0.363,1.538c-9.531,5.438-19.066,10.877-28.597,16.312c-1.342,0.768-2.652,0.992-2.929,0.502
			C237.575,331.296,238.378,330.182,239.603,329.24z M140.193,319.118c-6.283,0.824-12.62,1.358-19.005,1.542
			c-20.571,0.588-42.065-2.097-61.665-9.314c-1.448-0.534-1.387-1.244,0.102-1.665c10.265-2.9,19.25-9.624,24.818-18.935
			c0.792-1.326,2.607-2.42,4.149-2.407c0.628,0.004,1.257,0.008,1.885,0.008c1.546,0,3.839,0.694,5.12,1.555
			c4.982,3.35,9.992,6.662,15.006,9.968c1.29,0.849,3.289,2.357,4.537,3.268c2.02,1.473,4.231,2.812,6.528,4.027
			c0.457,0.302,0.91,0.6,1.367,0.901c0.755,0.498,1.114,0.682,0.804,0.416c-0.31-0.265,0.559,0.077,1.962,0.723
			c0.147,0.065,0.294,0.134,0.437,0.199c1.407,0.637,1.958,1.024,1.208,0.898c-0.751-0.123-0.302,0.452,1.016,1.256
			c3.859,2.358,7.813,4.447,11.897,6.153C141.789,318.306,141.727,318.917,140.193,319.118z M143.89,245.825
			c-0.212,0.065-0.494,0.012-0.632-0.126c-0.139-0.135,0.033-0.192,0.383-0.123C143.988,245.649,144.102,245.76,143.89,245.825z
			 M129.43,220.97c31.004-3.439,62.293-3.538,93.249-0.31c1.538,0.159,1.546,0.498,0.02,0.734c-2.852,0.445-5.712,0.861-8.588,1.244
			c-1.53,0.204-1.521,0.359,0.025,0.359h4.573c1.546,0,1.673,0.555,0.257,1.175c-20.547,8.948-41.057,4.904-61.335,5.1
			c-1.546,0.016-1.546,0.135-0.004,0.232c9.523,0.604,19.045,1.208,28.568,1.812c1.542,0.098,2.815,0.441,2.848,0.763
			s-1.159,0.897-2.66,1.265c-6.001,1.481-12.048,2.828-17.936,4.68c-2.954,0.93-5.9,1.873-8.85,2.811
			c-1.473,0.469-3.864,0.478-5.353,0.062c-4.778-1.334-9.653-2.371-14.635-3.044c-0.229-0.033-0.445-0.037-0.657-0.024
			c-0.363,0.021-1.367-0.934-2.256-2.199c-2.812-4.019-5.626-8.038-8.438-12.056C127.37,222.312,127.896,221.141,129.43,220.97z
			 M81.421,229.048c1.876-0.437,3.757-0.861,5.639-1.261c9.718-2.064,19.498-3.782,29.314-5.169c1.53-0.216,2.828-0.065,2.987,0.298
			c0.094,0.208,0.208,0.416,0.355,0.624c2.791,3.986,5.581,7.977,8.372,11.962c0.885,1.265,0.355,2.403-1.188,2.493
			c-15.684,0.922-31.122-1.494-45.623-7.246C79.846,230.178,79.915,229.395,81.421,229.048z M47.528,238.301
			c5.879-1.885,11.812-3.623,17.772-5.23c1.493-0.404,3.815-0.143,5.202,0.535c18.894,9.229,39.674,13.109,60.682,11.065
			c0.151-0.016,0.298-0.041,0.437-0.069c0.237-0.053,1.302,0.747,2.387,1.812c1.081,1.065,0.767,2.313-0.706,2.783
			c-13.721,4.394-27.43,8.821-41.114,13.317c-3.888,1.277-7.785,3.309-10.91,5.912c-0.061,0.053-0.122,0.106-0.184,0.159
			c-0.098,0.09-0.91-0.856-1.848-2.081c-8.45-11.012-19.323-19.906-31.856-26.128C46.01,239.685,46.06,238.771,47.528,238.301z
			 M8.385,259.815c4.178-7.516,12.256-11.901,20.069-14.864c1.595-0.604,3.195-1.199,4.798-1.783
			c1.452-0.526,2.905-0.502,3.398-0.118c0.282,0.22,0.608,0.408,0.987,0.555c17.52,6.789,31.926,19.196,41.481,35.137
			c0.795,1.326,0.147,2.37-1.396,2.28c-23.521-1.358-46.463-6.581-67.5-18.617c-1.342-0.767-2.301-1.689-2.142-2.012
			C8.177,260.203,8.274,260.011,8.385,259.815z M9.523,270.056c20.522,11.122,42.791,16.218,65.603,17.756
			c1.542,0.106,2.122,1.228,1.183,2.459c-7.209,9.466-18.593,14.777-30.938,13.929c-0.257-0.016-0.498-0.012-0.722,0.017
			c-0.396,0.049-1.812-0.42-3.158-1.179c-7.515-4.247-14.557-9.34-20.91-15.385c-4.28-4.076-10.281-9.919-12.713-16.279
			C7.32,269.93,8.165,269.317,9.523,270.056z"/>
	</g>
</g>
</svg>