<?xml version="1.0" encoding="iso-8859-1"?>
<!-- Uploaded to: SVG Repo, www.svgrepo.com, Generator: SVG Repo Mixer Tools -->
<svg fill="#000000" height="800px" width="800px" version="1.1" id="Layer_1" xmlns="http://www.w3.org/2000/svg" xmlns:xlink="http://www.w3.org/1999/xlink" 
	 viewBox="0 0 511.998 511.998" xml:space="preserve">
<g>
	<g>
		<path d="M459.899,495.788l-57.448-32.829l-25.175-109.117c-0.521-2.213-1.883-4.139-3.801-5.372l-84.992-54.081l72.609-8.07
			c2.551-0.278,4.842-1.684,6.265-3.81l32.135-48.206h56.103c4.799,0,8.678-3.888,8.678-8.678s-3.879-8.678-8.678-8.678h-60.746
			c-2.898,0-5.615,1.449-7.22,3.862l-32.464,48.709l-69.762,7.749l1.814-9.962l86.571-60.607c2.326-1.623,3.705-4.278,3.705-7.107
			v-64.503l39.181-23.509c4.105-2.473,5.441-7.801,2.968-11.906c-2.465-4.113-7.784-5.45-11.906-2.977l-43.39,26.034
			c-2.612,1.562-4.209,4.391-4.209,7.437v64.911l-68.504,47.946l7.611-41.88c0.043-0.234-0.043-0.469-0.026-0.703
			c0.035-0.295,0.174-0.547,0.174-0.85v-17.356c0-14.11-6.873-26.546-17.339-34.478c0.391-4.226,5.493-52.302,34.695-52.302
			c45.099,0,59.166-76.618,60.624-85.348c0.79-4.729-2.404-9.199-7.133-9.988c-4.712-0.79-9.207,2.404-9.98,7.133
			c-3.072,18.38-17.642,70.847-43.511,70.847c-38.01,0-48.527,44.422-51.2,61.883c-3.081-0.694-6.257-1.137-9.546-1.137
			c-3.289,0-6.465,0.443-9.546,1.137c-2.673-17.46-13.191-61.883-51.2-61.883c-25.938,0-40.205-51.148-43.511-70.856
			c-0.798-4.729-5.268-7.906-9.988-7.125c-4.721,0.79-7.914,5.259-7.125,9.988c1.458,8.73,15.525,85.348,60.624,85.348
			c29.054,0,34.287,48.024,34.695,52.302c-10.466,7.932-17.339,20.367-17.339,34.478v17.356c0,0.304,0.139,0.555,0.174,0.85
			c0.017,0.234-0.069,0.469-0.026,0.703l7.611,41.88l-68.504-47.946v-64.911c0-3.046-1.605-5.875-4.209-7.437l-43.39-26.034
			c-4.122-2.473-9.442-1.137-11.915,2.977c-2.465,4.105-1.128,9.433,2.977,11.906l39.181,23.509v64.503
			c0,2.829,1.38,5.484,3.706,7.107l86.571,60.607l1.805,9.962l-69.753-7.749l-32.464-48.709c-1.614-2.412-4.322-3.862-7.22-3.862
			H56.408c-4.799,0-8.678,3.888-8.678,8.678s3.879,8.678,8.678,8.678h56.103l32.135,48.206c1.423,2.126,3.714,3.532,6.266,3.81
			l72.609,8.07l-84.992,54.081c-1.918,1.232-3.28,3.159-3.801,5.372l-25.175,109.117l-57.448,32.829
			c-4.165,2.378-5.615,7.68-3.228,11.837c1.597,2.803,4.521,4.374,7.541,4.374c1.458,0,2.942-0.365,4.296-1.146l60.746-34.712
			c2.1-1.198,3.61-3.22,4.157-5.58l25.227-109.351l37.246-23.7c-6.109,10.405-10.162,22.459-10.153,36.378
			c0.451,5.285,11.733,129.432,78.067,129.432c66.326,0,77.616-124.147,78.102-130.169c0-13.52-3.94-25.262-9.893-35.45
			l36.951,23.509l25.227,109.351c0.547,2.36,2.057,4.382,4.157,5.58l60.746,34.712c1.354,0.781,2.838,1.146,4.296,1.146
			c3.02,0,5.936-1.571,7.541-4.374C465.505,503.468,464.056,498.166,459.899,495.788z"/>
	</g>
</g>
</svg>