<?xml version="1.0" encoding="iso-8859-1"?>
<!-- Uploaded to: SVG Repo, www.svgrepo.com, Generator: SVG Repo Mixer Tools -->
<svg fill="#000000" height="800px" width="800px" version="1.1" id="Layer_1" xmlns="http://www.w3.org/2000/svg" xmlns:xlink="http://www.w3.org/1999/xlink" 
	 viewBox="0 0 512.002 512.002" xml:space="preserve">
<g>
	<g>
		<path d="M327.651,314.964c-22.535,0-40.679,8.865-53.737,18.483v-62.041c13.075,10.27,31.193,19.675,53.737,19.675
			c53.326,0,84.856-42.806,86.171-44.628l7.873-10.901l-8.271-10.603c-1.317-1.689-32.856-41.342-85.773-41.342
			c-22.535,0-40.679,8.865-53.737,18.482v-37.553c13.41-11.41,35.825-35.684,35.825-70.491c0-53.326-42.806-84.855-44.628-86.171
			L254.209,0l-10.603,8.271c-1.687,1.317-41.342,32.856-41.342,85.774c0,37.052,23.954,62.228,35.825,72.433v35.612
			c-13.058-9.618-31.202-18.482-53.737-18.482c-52.917,0-84.457,39.653-85.773,41.342l-8.271,10.603l7.873,10.901
			c1.316,1.822,32.844,44.628,86.171,44.628c22.545,0,40.662-9.405,53.737-19.675v62.041c-13.058-9.618-31.202-18.483-53.737-18.483
			c-52.917,0-84.457,39.655-85.773,41.342l-8.271,10.603l7.873,10.901c1.316,1.822,32.844,44.628,86.171,44.628
			c22.545,0,40.662-9.405,53.737-19.675v109.237h35.825V402.765c13.075,10.27,31.193,19.675,53.737,19.675
			c53.326,0,84.856-42.806,86.171-44.628l7.873-10.901l-8.271-10.603C412.107,354.618,380.568,314.964,327.651,314.964z"/>
	</g>
</g>
</svg>