<?xml version="1.0" encoding="iso-8859-1"?>
<!-- Uploaded to: SVG Repo, www.svgrepo.com, Generator: SVG Repo Mixer Tools -->
<svg fill="#000000" height="800px" width="800px" version="1.1" id="Layer_1" xmlns="http://www.w3.org/2000/svg" xmlns:xlink="http://www.w3.org/1999/xlink" 
	 viewBox="0 0 511.999 511.999" xml:space="preserve">
<g>
	<g>
		<path d="M414.876,494.344H273.634v-41.816c14.513-26.748,32.159-47.104,48.022-64.15c50.679-0.441,81.108-9.41,101.164-29.793
			c19.385-19.703,28.081-49.54,27.365-93.899c-0.079-4.82-4.017-8.686-8.828-8.686c-80.755,0-131.081,20.321-132.299,120.002
			c-11.432,12.262-23.764,26.236-35.425,43.008V300.137c0-11.458,12.182-32.459,30.49-52.983
			c81.231-0.406,119.578-13.974,119.578-123.569c0-4.873-3.955-8.828-8.828-8.828c-83.121,0-122.721,11.997-123.551,120.144
			c-4.423,4.952-11.211,13.012-17.69,22.422v-98.357c0.088-11.688,0.9-21.689,2.631-30.852c-6.047,1.201-12.465-1.05-16.825-5.217
			c3.513-17.276,9.913-32.221,20.506-48.305c2.684-4.069,8.148-5.208,12.226-2.516c4.07,2.684,5.191,8.165,2.516,12.235
			c-10.302,15.625-16.093,29.661-18.9,46.839c28.019-5.349,54.616-22.475,69.058-45.109c14.627-22.916,17.32-50.556,7.804-79.934
			c-1.315-4.061-5.341-6.621-9.587-6.02C296.63,6.408,263.968,25.731,251.071,54.5c-9.746,21.742-6.797,47.342,7.795,70.806
			c0.018-0.124,0.062-0.23,0.079-0.353c-1.907,10.187-2.869,21.204-2.966,33.88v0.035v0.026v62.155
			c-6.983-9.958-14.151-17.893-17.814-21.742c0.026,0.026,0.044,0.044,0.071,0.071c-0.433-39.945-7.671-64.212-24.117-80.402
			c-15.51-15.263-39.424-22.334-73.048-21.875c-4.811,0.079-8.677,4.008-8.677,8.828c0,62.517,16.102,104.404,93.219,105.799
			c-0.411-0.441-0.813-0.864-1.199-1.265c9.801,10.131,31.566,36.387,31.566,54.363v112.146
			c-8.015-10.037-15.589-17.187-21.778-22.996c-1.739-1.642-3.302-3.125-4.767-4.564C228.278,227.168,170.219,203.033,70.6,203.033
			c-4.882,0-8.828,3.955-8.828,8.828c0,98.348,52.242,148.727,155.101,149.954c1.615,1.589,3.337,3.24,5.252,5.032
			c9.242,8.669,21.795,20.533,33.854,41.631v85.866H114.738c-4.882,0-8.828,3.955-8.828,8.828c0,4.882,3.946,8.828,8.828,8.828
			h300.138c4.873,0,8.828-3.946,8.828-8.828C423.703,498.298,419.748,494.344,414.876,494.344z M367.215,318.525
			c4.458-1.951,9.666,0.106,11.617,4.573c1.942,4.476-0.106,9.675-4.581,11.617c-22.978,10.01-37.623,30.596-48.914,49.417
			c-0.256,0.433-0.6,0.777-0.918,1.148c3.045-3.566,2.842-8.898-0.609-12.129c-3.566-3.346-9.154-3.169-12.482,0.397
			c-0.203,0.212-0.406,0.441-0.609,0.662C323.386,353.217,340.018,330.371,367.215,318.525z M297.548,228.006
			c10.019-11.193,30.879-34.498,50.079-49.567c3.831-3.01,9.384-2.339,12.394,1.492s2.339,9.384-1.492,12.394
			c-17.982,14.115-38.144,36.635-47.828,47.457c-1.713,1.916-3.099,3.469-4.096,4.546c0.556-0.609,1.262-1.395,2.057-2.278
			c-5.809-1.977-10.646-6.886-12.35-12.668l-2.692,2.984L297.548,228.006z M225.647,203.272c-1.73,1.121-3.805,1.801-5.985,2.119
			l3.584,3.884c0.345,0.345,0.718,0.726,1.103,1.124c-0.387-0.401-0.759-0.779-1.103-1.124l-35.549-38.506
			c-3.31-3.584-3.081-9.163,0.494-12.473c3.602-3.302,9.172-3.072,12.473,0.503l32.424,35.116
			C231.915,197.516,229.549,200.765,225.647,203.272z M227.104,347.064c-3.328-3.549-8.907-3.734-12.482-0.397
			c-3.452,3.231-3.655,8.563-0.609,12.129c-0.265-0.309-0.565-0.583-0.786-0.936c-22.316-34.931-44.191-56.956-66.86-67.346
			c-4.431-2.039-6.382-7.274-4.352-11.705c2.039-4.44,7.283-6.374,11.705-4.352c25.653,11.758,49.805,35.681,73.807,73.039
			C227.395,347.355,227.236,347.205,227.104,347.064z"/>
	</g>
</g>
</svg>