<?xml version="1.0" encoding="iso-8859-1"?>
<!-- Uploaded to: SVG Repo, www.svgrepo.com, Generator: SVG Repo Mixer Tools -->
<!DOCTYPE svg PUBLIC "-//W3C//DTD SVG 1.1//EN" "http://www.w3.org/Graphics/SVG/1.1/DTD/svg11.dtd">
<svg fill="#000000" version="1.1" id="Capa_1" xmlns="http://www.w3.org/2000/svg" xmlns:xlink="http://www.w3.org/1999/xlink" 
	 width="800px" height="800px" viewBox="0 0 563.732 563.731"
	 xml:space="preserve">
<g>
	<g>
		<path d="M352.791,124.15c0-43.911-27.448-106.815-70.925-124.15c-43.477,17.335-70.925,80.239-70.925,124.15
			c0,43.911,27.448,106.812,70.925,124.166C325.342,230.966,352.791,168.064,352.791,124.15z"/>
		<path d="M316.14,309.326c36.414,29.438,104.723,22.549,143.004,1.047c38.277-21.484,79.679-76.225,73.504-122.615
			c-36.396-29.403-104.686-22.549-142.967-1.065C351.404,208.196,309.968,262.921,316.14,309.326z"/>
		<path d="M459.143,490.711c38.278-21.484,79.68-76.243,73.505-122.63c-36.396-29.403-104.686-22.549-142.967-1.046
			c-38.296,21.502-79.716,76.225-73.541,122.632C352.537,519.102,420.848,512.195,459.143,490.711z"/>
		<path d="M104.606,310.373c38.262,21.502,106.589,28.391,142.966-1.047c6.19-46.387-35.245-101.112-73.504-122.633
			c-38.281-21.484-106.589-28.357-142.984,1.065C24.911,234.148,66.347,288.889,104.606,310.373z"/>
		<path d="M104.606,490.711c38.262,21.487,106.589,28.391,142.966-1.044c6.19-46.39-35.245-101.13-73.504-122.632
			c-38.263-21.503-106.589-28.376-142.984,1.046C24.911,414.468,66.328,469.227,104.606,490.711z"/>
		<path d="M268.098,283.781v270.819c0,5.043,6.163,9.131,13.768,9.131c7.604,0,13.767-4.088,13.767-9.131V283.781
			c0-5.043-6.163-9.131-13.767-9.131C274.261,274.65,268.098,278.738,268.098,283.781z"/>
	</g>
</g>
</svg>