<?xml version="1.0" encoding="iso-8859-1"?>
<!-- Uploaded to: SVG Repo, www.svgrepo.com, Generator: SVG Repo Mixer Tools -->
<svg fill="#000000" height="800px" width="800px" version="1.1" id="Layer_1" xmlns="http://www.w3.org/2000/svg" xmlns:xlink="http://www.w3.org/1999/xlink" 
	 viewBox="0 0 512 512" xml:space="preserve">
<g>
	<g>
		<path d="M428.838,219.551c-2.341,0-4.912,0.133-7.658,0.372c2.111-1.773,4.021-3.496,5.678-5.152
			c26.821-26.821,26.821-70.464-0.001-97.288c-12.993-12.992-30.269-20.147-48.643-20.147c-18.117,0-35.16,6.969-48.087,19.621
			c3.106-14.894,4.992-27.99,4.992-37.839C335.118,35.493,299.626,0,256.001,0c-43.625,0-79.118,35.493-79.118,79.118
			c0,9.849,1.886,22.944,4.992,37.839c-12.928-12.651-29.968-19.62-48.086-19.62c-18.375,0-35.652,7.156-48.645,20.15
			c-12.993,12.994-20.15,30.267-20.15,48.641s7.155,35.649,20.15,48.643c1.657,1.656,3.567,3.379,5.678,5.152
			c-2.748-0.24-5.32-0.372-7.663-0.372c-37.929,0.001-68.787,30.862-68.787,68.794c0,37.931,30.86,68.791,68.791,68.791
			c5.532,0,12.267-0.703,19.847-1.944c-18.304,24.081-16.484,58.677,5.49,80.653c11.613,11.614,27.056,18.01,43.479,18.01
			c16.423,0,31.866-6.395,43.478-18.01c11.643-11.642,26.845-36.957,40.801-62.929V512h39.486V372.914
			c13.957,25.971,29.156,51.286,40.799,62.927c11.612,11.613,27.053,18.01,43.478,18.011c0,0,0.003,0,0.005,0
			c16.422,0,31.862-6.395,43.475-18.01c21.973-21.974,23.794-56.567,5.49-80.651c7.58,1.24,14.315,1.944,19.847,1.944
			c37.93,0,68.79-30.861,68.79-68.794C497.628,250.409,466.768,219.551,428.838,219.551z"/>
	</g>
</g>
</svg>