<?xml version="1.0" encoding="utf-8"?>

<!DOCTYPE svg PUBLIC "-//W3C//DTD SVG 1.1//EN" "http://www.w3.org/Graphics/SVG/1.1/DTD/svg11.dtd">
<!-- Uploaded to: SVG Repo, www.svgrepo.com, Generator: SVG Repo Mixer Tools -->
<svg height="800px" width="800px" version="1.1" id="_x32_" xmlns="http://www.w3.org/2000/svg" xmlns:xlink="http://www.w3.org/1999/xlink" 
	 viewBox="0 0 512 512"  xml:space="preserve">
<style type="text/css">
	.st0{fill:#000000;}
</style>
<g>
	<path class="st0" d="M449.469,110.076C366.072,76.721,319.373,0,255.996,0C192.619,0,145.927,76.721,62.531,110.076
		c-56.854,22.748-76.72,80.055-30.022,126.754c36.889,36.897,111.242,55.038,175.385,61.04
		c-1.51,46.071-6.614,75.586-21.974,108.512c-19.72,42.254-5.64,92.962,42.254,104.228c47.896,11.267,75.778-48.14,81.695-101.416
		c3.38-30.42,3.717-75.026,0.406-111.939c62.68-6.568,133.498-24.71,169.215-60.426C526.19,190.131,506.323,132.825,449.469,110.076
		z"/>
</g>
</svg>