<?xml version="1.0" encoding="iso-8859-1"?>
<!-- Uploaded to: SVG Repo, www.svgrepo.com, Generator: SVG Repo Mixer Tools -->
<svg fill="#000000" height="800px" width="800px" version="1.1" id="Layer_1" xmlns="http://www.w3.org/2000/svg" xmlns:xlink="http://www.w3.org/1999/xlink" 
	 viewBox="0 0 512 512" xml:space="preserve">
<g>
	<g>
		<path d="M225.497,266.82c2.725,15.012,5.118,30.036,7.303,45.123c18.363-7.553,34.638-17.664,47.964-29.332
			c0.004-0.023,0.009-0.047,0.015-0.069C263.883,280.205,246.03,273.491,225.497,266.82z"/>
	</g>
</g>
<g>
	<g>
		<path d="M38.169,282.55c13.339,11.694,29.639,21.827,48.034,29.393c2.179-15.044,4.569-30.061,7.302-45.122
			C72.954,273.497,55.082,280.221,38.169,282.55z"/>
	</g>
</g>
<g>
	<g>
		<path d="M189.576,256.994c-9.88-1.977-19.953-3.228-30.075-3.228c-10.12,0-20.195,1.251-30.075,3.229
			c-13.202,65.773-21.812,153.393-21.812,171.599c0,29.905,23.23,54.149,51.886,54.149c28.656,0,51.886-24.243,51.886-54.149
			C211.388,410.389,202.778,322.767,189.576,256.994z"/>
	</g>
</g>
<g>
	<g>
		<path d="M159.501,28.805C71.411,28.804,0,121.357,0,207.988c0,31.904,9.684,41.981,26.323,41.981
			c28.538,0,77.531-29.651,133.178-29.651c54.783,0,103.094,28.71,131.81,29.609c6.903-15.365,16.212-29.643,27.688-42.201
			C318.855,121.171,247.503,28.805,159.501,28.805z"/>
	</g>
</g>
<g>
	<g>
		<path d="M433.092,354.491c-7.128-1.72-14.355-2.897-21.407-2.897s-14.279,1.175-21.407,2.897
			c-6.878,39.072-11.226,84.387-11.226,94.648c0,18.809,14.61,34.056,32.633,34.056c18.023,0,32.633-15.247,32.633-34.056
			C444.318,438.878,439.97,393.563,433.092,354.491z"/>
	</g>
</g>
<g>
	<g>
		<path d="M411.685,197.697c-55.403,0-100.315,58.209-100.315,112.695c0,20.066,6.091,26.403,16.555,26.403
			c17.948,0,48.762-18.649,83.76-18.649c35.003,0,65.813,18.649,83.76,18.649c10.46,0,16.555-6.341,16.555-26.403
			C512,255.907,467.088,197.697,411.685,197.697z"/>
	</g>
</g>
</svg>