<?xml version="1.0" encoding="iso-8859-1"?>
<!-- Uploaded to: SVG Repo, www.svgrepo.com, Generator: SVG Repo Mixer Tools -->
<!DOCTYPE svg PUBLIC "-//W3C//DTD SVG 1.1//EN" "http://www.w3.org/Graphics/SVG/1.1/DTD/svg11.dtd">
<svg fill="#000000" height="800px" width="800px" version="1.1" id="Capa_1" xmlns="http://www.w3.org/2000/svg" xmlns:xlink="http://www.w3.org/1999/xlink" 
	 viewBox="0 0 457.893 457.893" xml:space="preserve">
<g id="XMLID_104_">
	<path id="XMLID_231_" d="M279.249,399.723l0.686-4.46c-1.631-0.457-3.24-0.982-4.826-1.568
		c-11.225-4.151-21.213-11.478-28.507-21.253c-11.748-15.742-15.423-36.379-9.832-55.197c6.662-22.447,19.876-42.53,37.079-57.536
		c-8.58,0-124.784,0-130.123,0l-14.26,92.689c-4.068,26.439,3.589,53.247,21.007,73.55c17.418,20.302,42.75,31.945,69.502,31.945
		c23.051,0,45.044-8.653,61.832-24.035C278.402,422.956,277.468,411.297,279.249,399.723z"/>
	<path id="XMLID_785_" d="M369.253,225.452c17.914,0,35.005-8.572,45.721-22.932c10.665-14.294,14.062-33.197,8.971-50.358
		C398.317,65.793,318.01,0,219.984,0C122.076,0,41.699,65.617,16.013,152.158c-4.97,16.744-1.93,35.742,8.97,50.351
		c10.72,14.366,27.812,22.943,45.72,22.943H369.253z M219.976,95.158c23.802,0,43.085,19.289,43.085,43.085
		c0,23.797-19.283,43.085-43.085,43.085c-23.801,0-43.084-19.289-43.084-43.085C176.892,114.447,196.175,95.158,219.976,95.158z
		 M395.184,160.696c1.968,6.631,1.278,13.78-1.787,19.883c-25.13-4.218-44.273-26.058-44.273-52.384
		c0-12.21,4.127-23.45,11.049-32.422C375.881,114.468,387.982,136.426,395.184,160.696z M311.207,54.666
		c-4.665,4.087-10.772,6.569-17.464,6.569c-14.11,0-25.635-11.014-26.466-24.913C282.736,40.52,297.497,46.722,311.207,54.666z
		 M172.676,36.326c-0.833,13.896-12.357,24.909-26.467,24.909c-6.689,0-12.793-2.481-17.458-6.565
		C142.46,46.727,157.219,40.524,172.676,36.326z M44.773,160.695c7.491-25.237,20.274-47.977,36.906-67.145
		c8.01,9.304,12.863,21.403,12.863,34.645c0,27.52-20.911,50.149-47.72,52.86C43.543,174.849,42.753,167.501,44.773,160.695z"/>
	<path id="XMLID_801_" d="M442.866,325.784c-10.891-36.699-44.241-64.458-84.881-66.075h-7.572
		c-40.591,1.615-73.98,29.331-84.883,66.071c-2.909,9.792-0.998,20.528,5.115,28.72c6.113,8.192,15.861,13.081,26.074,13.081h17.827
		l-5.647,36.704c-2.036,13.233,1.796,26.649,10.512,36.806c8.716,10.162,21.394,15.99,34.783,15.99
		c13.388,0,26.065-5.827,34.783-15.988c8.716-10.16,12.548-23.576,10.513-36.807l-5.646-36.705h17.829
		c10.218,0,19.965-4.889,26.078-13.081C443.859,346.312,445.772,335.577,442.866,325.784z"/>
</g>
</svg>