<?xml version="1.0" encoding="iso-8859-1"?>
<!-- Uploaded to: SVG Repo, www.svgrepo.com, Generator: SVG Repo Mixer Tools -->
<svg fill="#000000" height="800px" width="800px" version="1.1" id="Layer_1" xmlns="http://www.w3.org/2000/svg" xmlns:xlink="http://www.w3.org/1999/xlink" 
	 viewBox="0 0 450.688 450.688" xml:space="preserve">
<g>
	<g>
		<path d="M444.008,240.689c-4.116-6.946-9.722-12.46-16.166-16.393l6.873-7.62c22.081-24.481,20.135-62.227-4.346-84.307
			c-15.012-13.541-35.01-18.03-53.327-13.844c6.378-28.739-9.314-58.473-37.712-68.896c-19.494-7.156-40.315-3.494-55.899,7.927
			c-3.432-29.705-28.656-52.77-59.281-52.77c-30.097,0-54.979,22.277-59.086,51.24c-15.312-10.204-35.112-13.224-53.708-6.397
			C82.96,60.054,67.268,89.787,73.645,118.526c-18.317-4.185-38.314,0.305-53.326,13.844c-24.481,22.08-26.427,59.825-4.346,84.307
			l6.872,7.619c-6.443,3.933-12.049,9.448-16.166,16.394c-13.445,22.689-5.952,51.982,16.737,65.428l141.157,83.65
			c1.843,31.309,27.807,56.133,59.578,56.133c31.268,0,56.904-24.046,59.465-54.652l143.655-85.131
			C449.961,292.672,457.454,263.379,444.008,240.689z"/>
	</g>
</g>
</svg>