<?xml version="1.0" encoding="iso-8859-1"?>
<!-- Uploaded to: SVG Repo, www.svgrepo.com, Generator: SVG Repo Mixer Tools -->
<!DOCTYPE svg PUBLIC "-//W3C//DTD SVG 1.1//EN" "http://www.w3.org/Graphics/SVG/1.1/DTD/svg11.dtd">
<svg fill="#000000" height="800px" width="800px" version="1.1" id="Capa_1" xmlns="http://www.w3.org/2000/svg" xmlns:xlink="http://www.w3.org/1999/xlink" 
	 viewBox="0 0 213.306 213.306" xml:space="preserve">
<g>
	<path d="M182.082,127.001c10.919,0,20.918-5.973,26.096-15.587l4.231-7.857c1.251-2.324,1.189-5.135-0.165-7.401
		c-1.354-2.267-3.799-3.654-6.439-3.654h-24.604c-6.012,0-11.8,1.861-16.646,5.149V86.049h17.527
		c10.919,0,20.918-5.973,26.096-15.587l4.231-7.857c1.251-2.324,1.189-5.135-0.165-7.401c-1.354-2.267-3.799-3.654-6.439-3.654
		h-24.604c-2.414,0-4.789,0.311-7.086,0.882c2.801-4.364,4.773-9.978,4.773-17.007c0-21.071-17.116-32.061-17.845-32.518
		c-2.438-1.531-5.538-1.531-7.977,0c-0.729,0.458-17.845,11.447-17.845,32.518c0,7.029,1.972,12.643,4.773,17.006
		c-2.296-0.57-4.671-0.881-7.085-0.881h-24.604c-2.64,0-5.085,1.388-6.439,3.654c-1.354,2.266-1.416,5.077-0.165,7.401l4.231,7.857
		c5.176,9.614,15.176,15.587,26.096,15.587h17.527V97.65c-4.846-3.288-10.633-5.149-16.646-5.149h-24.604
		c-2.64,0-5.085,1.388-6.439,3.654c-1.354,2.266-1.416,5.077-0.165,7.401l4.231,7.857c5.176,9.614,15.176,15.587,26.096,15.587
		h17.527v12.286c-4.846-3.288-10.634-5.149-16.646-5.149h-24.604c-2.64,0-5.085,1.388-6.439,3.654
		c-1.354,2.266-1.416,5.077-0.165,7.401l4.231,7.857c5.176,9.614,15.176,15.587,26.096,15.587h17.527v35.411
		c0,4.142,3.358,7.5,7.5,7.5s7.5-3.358,7.5-7.5v-35.411h17.527c10.919,0,20.918-5.973,26.096-15.587l4.231-7.857
		c1.251-2.324,1.189-5.135-0.165-7.401c-1.354-2.267-3.799-3.654-6.439-3.654h-24.604c-6.012,0-11.8,1.86-16.646,5.148v-12.285
		H182.082z"/>
	<path d="M66.9,132.183c9.33,0,17.874-5.103,22.297-13.318l3.406-6.326c1.251-2.324,1.189-5.135-0.165-7.402
		c-1.354-2.266-3.799-3.654-6.439-3.654H66.19c-0.987,0-1.965,0.068-2.933,0.182c1.54-3.24,2.533-7.118,2.533-11.704
		c0-17.764-14.437-27.033-15.052-27.419c-2.438-1.531-5.538-1.531-7.977,0c-0.615,0.386-15.052,9.655-15.052,27.419
		c0,4.585,0.992,8.464,2.533,11.704c-0.968-0.114-1.946-0.182-2.933-0.182H7.5c-2.64,0-5.085,1.388-6.439,3.654
		c-1.354,2.267-1.416,5.078-0.165,7.402l3.406,6.326c4.423,8.215,12.967,13.318,22.297,13.318h12.65v11.218
		c-3.625-1.942-7.717-3.023-11.94-3.023H7.5c-2.64,0-5.085,1.388-6.439,3.654c-1.354,2.267-1.416,5.078-0.165,7.402l3.406,6.326
		c4.424,8.215,12.967,13.318,22.297,13.318h12.65v32.971c0,4.142,3.358,7.5,7.5,7.5s7.5-3.358,7.5-7.5v-32.971H66.9
		c9.33,0,17.874-5.103,22.297-13.318l3.406-6.326c1.251-2.324,1.189-5.135-0.165-7.402c-1.354-2.266-3.799-3.654-6.439-3.654H66.19
		c-4.224,0-8.315,1.081-11.94,3.023v-11.218H66.9z"/>
</g>
</svg>