<?xml version="1.0" encoding="utf-8"?>

<!DOCTYPE svg PUBLIC "-//W3C//DTD SVG 1.1//EN" "http://www.w3.org/Graphics/SVG/1.1/DTD/svg11.dtd">
<!-- Uploaded to: SVG Repo, www.svgrepo.com, Generator: SVG Repo Mixer Tools -->
<svg fill="#000000" height="800px" width="800px" version="1.1" id="Layer_1" xmlns="http://www.w3.org/2000/svg" xmlns:xlink="http://www.w3.org/1999/xlink" 
	 viewBox="0 0 100 100" enable-background="new 0 0 100 100" xml:space="preserve">
<path d="M18.4,64.7c-5.9,0-9.3,2.3-10.4,3.2c3,3,11.6,5,26.7,6.1c-1.6-1-3.1-2.1-4.6-3.2C25.9,67.8,21.6,64.7,18.4,64.7z M94.3,30.2
	h-5c0,0-4.3-6-10.3,0c0,0-6.5-8.1-14.6,0c0,0-8.4-10.3-18.8,0C35.2,19.8,5.8,31.5,4.7,63.6c0,0.7,0.8,1.2,1.3,0.7
	c2-1.4,6.1-3.7,12.3-3.7c9.1,0,18.9,13.7,28,13.7s12.9-6.8,12.9-6.8s14.3-0.7,14.3-14.3c0,0,11.2-0.8,11.2-11.2c0,0,7.1-0.9,7.1-7.1
	l3-3C95.6,31.3,95.2,30.2,94.3,30.2z M35.6,32.6c-12.4,0-18.9,11.8-19,11.9c-0.2,0.3-0.5,0.5-0.9,0.5c-0.2,0-0.3,0-0.5-0.1
	c-0.5-0.3-0.7-0.9-0.4-1.4c0.3-0.5,7.2-13,20.8-13c0.6,0,1,0.4,1,1S36.2,32.6,35.6,32.6z M56.6,66.9c-0.1,0.4-0.5,0.7-1,0.7
	c-0.1,0-0.2,0-0.3,0c-0.5-0.2-13.4-3.9-13.4-14c0-3.3,1.2-5.6,2.3-7.8c1.5-3,3-5.9,1.7-11.6c-0.1-0.5,0.2-1.1,0.7-1.2
	c0.5-0.1,1.1,0.2,1.2,0.7c1.5,6.4-0.3,9.9-1.8,13c-1.1,2.1-2.1,4.1-2.1,6.9c0,8.6,11.8,12.1,11.9,12.1
	C56.4,65.8,56.7,66.3,56.6,66.9z M71.7,52.7c-0.1,0.4-0.5,0.7-1,0.7c-0.1,0-0.2,0-0.3,0c-0.3-0.1-7.9-2.3-7.9-8.4
	c0-2,0.7-3.3,1.3-4.6c0.8-1.7,1.6-3.2,0.9-6.3c-0.1-0.5,0.2-1.1,0.7-1.2c0.5-0.1,1.1,0.2,1.2,0.7c0.9,3.8-0.2,5.9-1.1,7.7
	c-0.6,1.2-1.1,2.2-1.1,3.7c0,4.6,6.4,6.4,6.5,6.5C71.6,51.6,71.9,52.1,71.7,52.7z M83.3,41.6c-0.1,0.4-0.5,0.7-1,0.7
	c-0.1,0-0.2,0-0.3,0c-0.2,0-4-1.2-4-4.3c0-1,0.4-1.7,0.7-2.3c0.4-0.7,0.6-1.3,0.4-2.5c-0.1-0.5,0.2-1.1,0.7-1.2
	c0.5-0.1,1.1,0.2,1.2,0.7c0.4,1.9-0.1,3-0.5,3.8C80.2,37.1,80,37.5,80,38c0,1.6,2.5,2.4,2.5,2.4C83.1,40.6,83.4,41.1,83.3,41.6z"/>
</svg>