<?xml version="1.0" encoding="utf-8"?>
<!-- Uploaded to: SVG Repo, www.svgrepo.com, Generator: SVG Repo Mixer Tools -->
<svg fill="#000000" height="800px" width="800px" version="1.2" baseProfile="tiny" id="Layer_1" xmlns="http://www.w3.org/2000/svg" xmlns:xlink="http://www.w3.org/1999/xlink"
	  viewBox="-399 401 100 100" xml:space="preserve">
<path d="M-302.1,489c-0.6-0.2-13.8-3.5-21.4-6.3c15.7-3.6,21.3-17.9,21.3-28.8c0-18.1-15-32.8-33.4-32.8s-33.4,14.7-33.4,32.8
	c0,4.6,1,9,2.7,12.9l0-0.1l5.6,1c0,0,0,0,0,0c0,0,0,0,0,0c1.8,0.4,6.4,1.3,13.7,2.5c8.2,1.4,13.6,0.3,18.1-3.8
	c2.8-2.6,4.5-6.1,4.7-9.9c0.2-3.8-1-7.5-3.5-10.4c-4-4.6-11-5-15.5-0.9c-3.6,3.3-4.1,9-1,12.6c2.4,2.8,6.8,3.1,9.5,0.7
	c1-0.9,1.6-2.1,1.6-3.3c0.1-1-0.2-2-0.8-2.7c-0.5-0.6-1.3-0.9-2.2-0.9c-0.6,0-1.4,0.3-2,0.7c-0.1,0.1-0.2,0.1-0.2,0.2c0,0,0,0,0,0
	c-0.1,0.1-0.2,0.1-0.3,0.2c0,0-0.1,0-0.1,0c-0.1,0-0.1,0-0.2,0c0,0,0,0,0,0c-0.1,0-0.2,0.1-0.3,0.1c-0.8,0-1.5-0.7-1.5-1.6
	c0-0.9,0.7-1.6,1.5-1.6c0.3,0,2.4-0.7,3.3-0.7c1.7-0.2,3.1,0.4,4.3,1.6c1.1,1.3,1.7,2.9,1.6,4.7c-0.1,2.1-1,4-2.6,5.4
	c-3.9,3.5-10.1,3.1-13.7-0.9c-4.1-4.8-3.6-12.5,1.3-16.9c5.7-5.2,14.6-4.7,19.7,1.2c3,3.5,4.5,8,4.3,12.6c-0.3,4.7-2.3,8.9-5.7,12
	c-3.8,3.5-8.3,5.2-14,5.2c-2,0-4.2-0.2-6.5-0.6c-5-0.9-10.2-1.8-13.8-2.4c-1.4-0.3-2.6-0.5-3.3-0.6c-0.4-0.1-0.7-0.1-0.8-0.1
	c-0.5-0.1-1-0.2-1.5-0.3c-5.1-1.2-7.8-13.2-7.8-14.3V433c0-1.6-1.2-2.8-2.8-2.8h-0.5c-1.5,0-2.8,1.3-2.8,2.8v21.8
	c-1.3,1.9-3.5,3.1-5.9,3.1c-2.3,0-4.4-1.1-5.7-2.9v-22c0-1.6-1.2-2.8-2.8-2.8h-0.5c-1.5,0-2.8,1.3-2.8,2.8v0.4v22.1
	c0,1-2.6,38.5,28.9,38.8c17.6,0.2,67.5,0,67.5,0c1.4,0,2.6-1.2,2.6-2.7S-300.7,489.4-302.1,489z"/>
</svg>