<?xml version="1.0" encoding="iso-8859-1"?>
<!-- Uploaded to: SVG Repo, www.svgrepo.com, Generator: SVG Repo Mixer Tools -->
<!DOCTYPE svg PUBLIC "-//W3C//DTD SVG 1.1//EN" "http://www.w3.org/Graphics/SVG/1.1/DTD/svg11.dtd">
<svg fill="#000000" version="1.1" id="Capa_1" xmlns="http://www.w3.org/2000/svg" xmlns:xlink="http://www.w3.org/1999/xlink" 
	 width="800px" height="800px" viewBox="0 0 56.432 56.432"
	 xml:space="preserve">
<g>
	<path d="M53.648,24.875c0-2.916-1.357-5.51-3.473-7.2c0.184-0.801,0.289-1.63,0.289-2.486c0-6.149-4.986-11.136-11.139-11.136
		c-1.611,0-3.145,0.352-4.525,0.969c-1.896-2.32-4.771-3.805-7.999-3.805c-1.258,0-2.454,0.243-3.566,0.658
		C21.467,0.691,19.341,0,17.053,0C10.902,0,5.917,4.986,5.917,11.136c0,2.066,0.573,3.993,1.552,5.651
		c-2.817,1.843-4.685,5.018-4.685,8.635c0,4.636,3.057,8.56,7.264,9.863c1.028,4.621,5.143,8.074,10.072,8.074
		c0.578,0,1.141-0.059,1.693-0.15c-0.305-3.92-0.074-8.436,1.538-12.584c0.4,0.172,0.815,0.314,1.239,0.438
		c-3.332,8.494-0.52,18.723,0.335,21.424h-6.733c-1.089,0-1.972,0.883-1.972,1.971c0,1.09,0.883,1.975,1.972,1.975h20.046
		c1.089,0,1.974-0.885,1.974-1.975c0-1.088-0.884-1.971-1.974-1.971h-9.271c0-0.221-0.028-0.443-0.106-0.664
		c-0.017-0.047-0.53-1.525-1.021-3.783c0.088-0.09,0.171-0.188,0.239-0.303c0.735-1.229,2.928-4.088,5.686-5.43
		c1.264,0.649,2.693,1.021,4.214,1.021c5.096,0,9.227-4.131,9.227-9.228c0-0.145-0.015-0.278-0.021-0.42
		C50.928,32.508,53.648,29.01,53.648,24.875z"/>
</g>
</svg>