<?xml version="1.0" standalone="no"?>
<!DOCTYPE svg PUBLIC "-//W3C//DTD SVG 20010904//EN"
 "http://www.w3.org/TR/2001/REC-SVG-20010904/DTD/svg10.dtd">
<svg version="1.0" xmlns="http://www.w3.org/2000/svg"
 width="512.000000pt" height="512.000000pt" viewBox="0 0 512.000000 512.000000"
 preserveAspectRatio="xMidYMid meet">

<g transform="translate(0.000000,512.000000) scale(0.100000,-0.100000)"
fill="#00796B" stroke="none">
<path d="M2370 5114 c-19 -2 -78 -9 -130 -15 -548 -62 -1083 -325 -1489 -730
-405 -406 -652 -907 -732 -1489 -18 -125 -18 -515 0 -640 80 -582 327 -1083
732 -1489 658 -657 1607 -906 2504 -654 929 260 1646 1043 1819 1987 156 845
-103 1682 -705 2285 -399 398 -879 639 -1449 726 -100 15 -472 28 -550 19z
m140 -1299 l0 -1215 -1211 0 -1212 0 7 103 c42 616 290 1169 717 1596 322 322
715 546 1149 655 162 41 355 70 498 74 l52 2 0 -1215z m405 1189 c517 -74
1013 -323 1389 -700 428 -428 681 -988 722 -1601 l7 -103 -1217 0 -1216 0 0
1216 0 1217 103 -7 c56 -4 152 -14 212 -22z m-405 -3705 l0 -1211 -97 6 c-616
44 -1170 295 -1603 728 -422 422 -672 977 -716 1591 l-7 97 1212 0 1211 0 0
-1211z m2516 1114 c-52 -733 -403 -1385 -981 -1823 -384 -291 -848 -463 -1342
-496 l-103 -7 0 1212 0 1211 1216 0 1216 0 -6 -97z"/>
<path d="M1816 4185 c-72 -25 -131 -86 -143 -148 -3 -15 -17 -36 -32 -46 -23
-16 -149 -90 -861 -507 -131 -76 -176 -107 -178 -123 -4 -27 14 -51 40 -51 10
0 95 44 188 99 l168 99 34 -35 c50 -54 169 -128 238 -149 l61 -19 60 -112 c69
-128 99 -150 129 -94 7 14 0 38 -30 100 -22 46 -40 84 -40 87 0 2 19 4 43 4
l42 0 56 -108 c57 -110 80 -131 115 -102 23 20 17 47 -31 134 -25 46 -45 85
-45 88 0 3 19 11 43 18 217 65 399 276 439 509 l12 71 41 0 c44 0 65 13 65 41
0 29 -29 49 -69 49 -35 0 -37 2 -49 45 -32 122 -174 194 -296 150z m141 -92
c55 -26 73 -64 73 -159 0 -81 0 -82 -27 -87 -96 -19 -245 72 -245 150 0 52 73
113 135 113 16 0 45 -8 64 -17z m-325 -260 c-41 -108 -119 -189 -228 -240 -48
-22 -77 -28 -154 -31 -170 -7 -170 -6 129 169 146 86 267 155 269 154 2 -1 -6
-25 -16 -52z m129 1 c22 -27 108 -65 175 -77 l65 -12 -33 -65 c-42 -82 -152
-194 -234 -237 -154 -82 -348 -84 -497 -6 l-52 28 85 6 c96 8 124 15 196 52
115 58 211 164 251 278 19 53 24 57 44 33z"/>
<path d="M3345 3854 c-11 -2 -45 -9 -75 -15 -30 -6 -93 -29 -139 -51 -112 -53
-219 -158 -275 -270 -21 -42 -38 -88 -38 -103 0 -46 70 -172 133 -240 78 -83
153 -132 257 -168 220 -76 456 -27 620 127 l67 64 50 -46 c28 -25 75 -57 105
-71 48 -23 68 -26 161 -26 91 0 110 3 128 19 12 11 21 24 21 30 0 5 -38 81
-85 169 l-86 159 63 121 c34 67 70 138 80 158 24 47 16 64 -38 85 -104 40
-265 -7 -359 -104 l-49 -51 -58 54 c-121 112 -345 186 -483 159z m170 -99
c118 -25 203 -74 289 -166 86 -93 106 -98 140 -36 37 65 71 101 125 130 49 27
161 49 161 32 0 -4 -32 -70 -72 -145 l-71 -138 76 -142 c43 -78 77 -144 77
-146 0 -2 -21 -4 -47 -4 -89 1 -168 45 -224 124 -61 87 -71 87 -134 6 -57 -75
-164 -151 -253 -182 -94 -32 -249 -32 -341 1 -129 45 -240 139 -301 252 -36
68 -35 86 7 159 59 100 180 201 284 235 106 35 184 41 284 20z"/>
<path d="M3232 3658 c-19 -19 -14 -46 13 -82 38 -50 55 -100 55 -166 0 -66
-17 -116 -55 -166 -27 -36 -32 -63 -13 -82 32 -32 80 4 124 90 63 124 42 290
-49 386 -33 34 -55 40 -75 20z"/>
<path d="M3068 3469 c-22 -12 -24 -62 -4 -78 8 -7 27 -11 43 -9 24 3 28 8 31
38 5 49 -30 73 -70 49z"/>
<path d="M635 2065 c-14 -14 -25 -36 -25 -51 0 -15 27 -125 61 -243 59 -212
81 -261 117 -261 7 0 12 -3 10 -7 -72 -143 -70 -138 -66 -246 3 -79 9 -111 26
-143 34 -67 69 -101 134 -133 55 -28 71 -31 153 -31 137 0 210 33 275 121 16
22 30 36 33 32 2 -4 8 -35 12 -68 9 -79 19 -95 56 -95 35 0 43 16 54 108 7 62
18 79 30 42 11 -33 103 -108 156 -125 38 -13 75 -16 147 -13 84 3 104 8 151
33 99 54 151 153 151 285 0 78 -19 147 -54 201 -24 35 -24 39 -8 39 40 0 59
43 122 269 37 134 59 233 56 247 -9 35 -46 64 -80 64 -56 0 -184 -50 -275
-108 -110 -69 -218 -165 -291 -260 -30 -39 -59 -70 -65 -68 -18 5 -16 54 3 93
11 21 43 59 71 85 56 52 61 66 30 93 -19 19 -21 19 -56 0 -47 -25 -107 -95
-130 -150 -10 -25 -20 -45 -23 -45 -3 0 -14 21 -25 48 -22 54 -101 138 -139
148 -16 4 -32 1 -41 -6 -27 -23 -17 -54 30 -93 45 -38 76 -87 89 -139 10 -44
-9 -40 -44 8 -56 78 -195 209 -286 270 -96 64 -238 123 -297 124 -27 0 -45 -7
-62 -25z m192 -110 c39 -18 100 -53 135 -76 65 -44 189 -163 245 -235 l32 -41
-206 -7 c-115 -4 -209 -4 -214 1 -5 5 -31 88 -58 184 -26 96 -51 185 -56 198
-7 22 -5 23 21 17 16 -4 61 -22 101 -41z m1256 -152 c-30 -109 -58 -202 -63
-206 -4 -5 -101 -5 -215 0 l-207 8 69 80 c80 93 183 182 268 232 57 34 168 81
191 83 7 0 -11 -80 -43 -197z m-635 -215 c7 -7 12 -26 12 -42 0 -36 -35 -244
-42 -251 -3 -3 -13 52 -22 122 -10 71 -19 133 -21 140 -10 31 48 56 73 31z
m-170 -257 l-3 -169 -31 -39 c-51 -63 -96 -83 -192 -83 -159 0 -232 73 -232
232 1 108 34 168 115 211 24 13 64 16 188 17 l158 0 -3 -169z m627 150 c85
-38 121 -114 113 -239 -9 -137 -84 -202 -234 -202 -104 0 -155 25 -199 95 -30
48 -30 51 -34 207 l-3 158 158 0 c133 0 166 -3 199 -19z"/>
<path d="M3110 2291 c-16 -30 -3 -60 28 -67 108 -23 138 -75 87 -150 -31 -46
-45 -95 -45 -162 l0 -53 -56 45 -56 46 -117 0 c-120 0 -141 -6 -141 -41 0 -35
39 -49 136 -49 l92 0 55 -46 54 -46 -43 -40 c-64 -59 -121 -150 -147 -234
l-22 -74 -82 0 c-83 0 -113 -12 -113 -45 0 -33 30 -45 111 -45 l79 0 0 -46 c0
-64 26 -156 63 -228 18 -34 33 -63 35 -66 1 -3 -11 -14 -28 -23 -54 -32 -102
-145 -80 -188 12 -21 52 -25 68 -6 5 6 15 31 21 54 10 38 50 83 73 83 5 0 33
-18 62 -40 213 -161 495 -159 709 4 26 20 51 36 56 36 22 0 62 -45 73 -83 15
-54 25 -67 54 -67 30 0 47 32 39 73 -10 49 -52 114 -85 134 -17 9 -29 20 -28
23 2 3 18 33 36 67 39 75 62 160 62 225 l0 48 59 0 c60 0 91 15 91 45 0 30
-31 45 -94 45 l-62 0 -12 48 c-29 110 -100 218 -192 291 l-49 39 53 46 54 46
99 0 c104 0 123 7 123 45 0 39 -18 45 -138 45 l-115 0 -53 -45 c-28 -25 -55
-45 -58 -45 -3 0 -6 22 -6 49 0 37 -9 66 -35 117 -40 76 -41 85 -20 118 16 24
45 39 97 50 19 4 30 15 34 31 21 82 -116 69 -193 -18 -17 -19 -32 -40 -34 -46
-3 -9 -17 -7 -48 4 -55 19 -114 19 -177 0 -27 -8 -49 -15 -49 -15 0 0 -9 16
-19 35 -27 49 -86 87 -145 93 -43 4 -51 2 -61 -17z m438 -186 c78 -33 122
-101 122 -190 0 -50 -2 -56 -18 -51 -94 30 -265 21 -364 -19 -16 -6 -18 0 -18
56 0 76 27 138 75 175 59 45 137 56 203 29z m-98 -791 l0 -476 -32 7 c-71 14
-70 12 -38 57 54 75 35 185 -41 235 -74 49 -176 28 -226 -46 l-22 -32 -19 38
c-34 66 -52 144 -52 225 l0 79 33 -23 c48 -35 141 -33 189 4 97 74 85 232 -22
280 -16 7 -30 16 -30 19 0 25 179 107 238 108 l22 1 0 -476z m179 460 c94 -28
197 -94 146 -94 -25 0 -84 -68 -95 -110 -15 -57 -3 -107 37 -151 58 -64 151
-77 214 -30 16 12 31 21 35 21 4 0 5 -48 2 -107 -4 -91 -9 -118 -33 -170 -15
-35 -29 -63 -30 -63 -2 0 -20 18 -42 39 -42 43 -105 66 -150 55 -114 -27 -167
-150 -108 -251 14 -23 31 -43 38 -44 18 -1 -23 -15 -65 -23 l-38 -7 0 476 c0
539 -10 489 89 459z m261 -194 c33 -33 30 -75 -6 -107 -40 -37 -85 -27 -113
24 -36 69 63 139 119 83z m-693 -12 c14 -13 23 -33 23 -50 0 -36 -40 -78 -75
-78 -14 0 -37 11 -50 25 -69 68 31 170 102 103z m106 -516 c10 -9 17 -29 17
-52 0 -41 -19 -65 -62 -75 -22 -6 -33 -1 -58 23 -34 34 -37 57 -14 90 29 41
78 47 117 14z m476 13 c52 -26 56 -81 9 -120 -36 -30 -71 -28 -100 7 -32 37
-18 101 25 118 31 12 34 12 66 -5z"/>
</g>
</svg>
